<mxfile host="Electron" modified="2024-09-14T17:18:04.533Z" agent="Mozilla/5.0 (Macintosh; Intel Mac OS X 10_15_7) AppleWebKit/537.36 (KHTML, like Gecko) draw.io/23.0.2 Chrome/120.0.6099.109 Electron/28.1.0 Safari/537.36" etag="KgueFOub783l5s_aKfey" version="23.0.2" type="device">
  <diagram name="Page-1" id="9AlM29CnMUpqj1kAv01T">
    <mxGraphModel dx="1509" dy="825" grid="1" gridSize="10" guides="1" tooltips="1" connect="1" arrows="1" fold="1" page="1" pageScale="1" pageWidth="827" pageHeight="1169" math="0" shadow="0">
      <root>
        <mxCell id="0" />
        <mxCell id="1" parent="0" />
        <mxCell id="ly5D5InqMBe2bX2_tgMY-45" style="edgeStyle=orthogonalEdgeStyle;rounded=0;orthogonalLoop=1;jettySize=auto;html=1;entryX=0.5;entryY=0;entryDx=0;entryDy=0;strokeColor=default;curved=1;" edge="1" parent="1" source="ly5D5InqMBe2bX2_tgMY-1" target="ly5D5InqMBe2bX2_tgMY-37">
          <mxGeometry relative="1" as="geometry">
            <Array as="points">
              <mxPoint x="440" y="640" />
              <mxPoint x="280" y="640" />
            </Array>
          </mxGeometry>
        </mxCell>
        <mxCell id="ly5D5InqMBe2bX2_tgMY-1" value="" style="rounded=1;whiteSpace=wrap;html=1;" vertex="1" parent="1">
          <mxGeometry x="140" y="120" width="570" height="430" as="geometry" />
        </mxCell>
        <mxCell id="ly5D5InqMBe2bX2_tgMY-3" value="" style="rounded=1;whiteSpace=wrap;html=1;" vertex="1" parent="1">
          <mxGeometry x="320" y="220" width="350" height="310" as="geometry" />
        </mxCell>
        <mxCell id="ly5D5InqMBe2bX2_tgMY-4" value="Header" style="rounded=1;whiteSpace=wrap;html=1;" vertex="1" parent="1">
          <mxGeometry x="160" y="130" width="520" height="60" as="geometry" />
        </mxCell>
        <mxCell id="ly5D5InqMBe2bX2_tgMY-5" value="Menu section" style="rounded=1;whiteSpace=wrap;html=1;" vertex="1" parent="1">
          <mxGeometry x="150" y="210" width="130" height="320" as="geometry" />
        </mxCell>
        <mxCell id="ly5D5InqMBe2bX2_tgMY-6" value="Detail section" style="text;html=1;strokeColor=none;fillColor=none;align=center;verticalAlign=middle;whiteSpace=wrap;rounded=0;" vertex="1" parent="1">
          <mxGeometry x="620" y="200" width="60" height="30" as="geometry" />
        </mxCell>
        <mxCell id="ly5D5InqMBe2bX2_tgMY-7" value="" style="rounded=1;whiteSpace=wrap;html=1;" vertex="1" parent="1">
          <mxGeometry x="340" y="250" width="310" height="120" as="geometry" />
        </mxCell>
        <mxCell id="ly5D5InqMBe2bX2_tgMY-8" value="" style="rounded=1;whiteSpace=wrap;html=1;" vertex="1" parent="1">
          <mxGeometry x="340" y="380" width="310" height="120" as="geometry" />
        </mxCell>
        <mxCell id="ly5D5InqMBe2bX2_tgMY-9" value="Table" style="text;html=1;strokeColor=none;fillColor=none;align=center;verticalAlign=middle;whiteSpace=wrap;rounded=0;" vertex="1" parent="1">
          <mxGeometry x="640" y="380" width="60" height="30" as="geometry" />
        </mxCell>
        <mxCell id="ly5D5InqMBe2bX2_tgMY-10" value="Form input" style="text;html=1;strokeColor=none;fillColor=none;align=center;verticalAlign=middle;whiteSpace=wrap;rounded=0;" vertex="1" parent="1">
          <mxGeometry x="630" y="240" width="80" height="30" as="geometry" />
        </mxCell>
        <mxCell id="ly5D5InqMBe2bX2_tgMY-11" value="Label Name" style="rounded=1;whiteSpace=wrap;html=1;" vertex="1" parent="1">
          <mxGeometry x="354" y="260" width="120" height="20" as="geometry" />
        </mxCell>
        <mxCell id="ly5D5InqMBe2bX2_tgMY-12" value="Element Type" style="rounded=1;whiteSpace=wrap;html=1;" vertex="1" parent="1">
          <mxGeometry x="354" y="290" width="120" height="20" as="geometry" />
        </mxCell>
        <mxCell id="ly5D5InqMBe2bX2_tgMY-13" value="Default value" style="rounded=1;whiteSpace=wrap;html=1;" vertex="1" parent="1">
          <mxGeometry x="354" y="320" width="120" height="20" as="geometry" />
        </mxCell>
        <mxCell id="ly5D5InqMBe2bX2_tgMY-14" value="Additional Info" style="rounded=1;whiteSpace=wrap;html=1;" vertex="1" parent="1">
          <mxGeometry x="354" y="350" width="120" height="20" as="geometry" />
        </mxCell>
        <mxCell id="ly5D5InqMBe2bX2_tgMY-15" value="" style="rounded=1;whiteSpace=wrap;html=1;" vertex="1" parent="1">
          <mxGeometry x="480" y="260" width="120" height="20" as="geometry" />
        </mxCell>
        <mxCell id="ly5D5InqMBe2bX2_tgMY-16" value="Multi choice" style="rounded=1;whiteSpace=wrap;html=1;" vertex="1" parent="1">
          <mxGeometry x="480" y="290" width="120" height="20" as="geometry" />
        </mxCell>
        <mxCell id="ly5D5InqMBe2bX2_tgMY-17" value="" style="rounded=1;whiteSpace=wrap;html=1;" vertex="1" parent="1">
          <mxGeometry x="480" y="320" width="120" height="20" as="geometry" />
        </mxCell>
        <mxCell id="ly5D5InqMBe2bX2_tgMY-18" value="" style="rounded=1;whiteSpace=wrap;html=1;" vertex="1" parent="1">
          <mxGeometry x="480" y="350" width="120" height="20" as="geometry" />
        </mxCell>
        <mxCell id="ly5D5InqMBe2bX2_tgMY-20" value="&lt;h1&gt;Element Type&lt;/h1&gt;&lt;div&gt;1. Text box&lt;/div&gt;&lt;div&gt;2. List Box&lt;/div&gt;&lt;div&gt;3. Text Area&lt;/div&gt;&lt;div&gt;4. Password&lt;/div&gt;&lt;div&gt;5.&amp;nbsp;&lt;/div&gt;" style="text;html=1;strokeColor=none;fillColor=none;spacing=5;spacingTop=-20;whiteSpace=wrap;overflow=hidden;rounded=0;" vertex="1" parent="1">
          <mxGeometry x="160" y="570" width="190" height="120" as="geometry" />
        </mxCell>
        <mxCell id="ly5D5InqMBe2bX2_tgMY-21" value="" style="shape=table;html=1;whiteSpace=wrap;startSize=0;container=1;collapsible=0;childLayout=tableLayout;columnLines=0;rowLines=0;fontSize=16;strokeColor=default;" vertex="1" parent="1">
          <mxGeometry x="354" y="390" width="266" height="90" as="geometry" />
        </mxCell>
        <mxCell id="ly5D5InqMBe2bX2_tgMY-22" value="" style="shape=tableRow;horizontal=0;startSize=0;swimlaneHead=0;swimlaneBody=0;top=0;left=0;bottom=0;right=0;collapsible=0;dropTarget=0;fillColor=none;points=[[0,0.5],[1,0.5]];portConstraint=eastwest;fontSize=16;strokeColor=inherit;" vertex="1" parent="ly5D5InqMBe2bX2_tgMY-21">
          <mxGeometry width="266" height="30" as="geometry" />
        </mxCell>
        <mxCell id="ly5D5InqMBe2bX2_tgMY-23" value="Label Name" style="shape=partialRectangle;html=1;whiteSpace=wrap;connectable=0;fillColor=none;top=0;left=0;bottom=0;right=0;overflow=hidden;fontSize=12;strokeColor=inherit;" vertex="1" parent="ly5D5InqMBe2bX2_tgMY-22">
          <mxGeometry width="89" height="30" as="geometry">
            <mxRectangle width="89" height="30" as="alternateBounds" />
          </mxGeometry>
        </mxCell>
        <mxCell id="ly5D5InqMBe2bX2_tgMY-24" value="Element Type" style="shape=partialRectangle;html=1;whiteSpace=wrap;connectable=0;fillColor=none;top=0;left=0;bottom=0;right=0;overflow=hidden;fontSize=12;strokeColor=inherit;" vertex="1" parent="ly5D5InqMBe2bX2_tgMY-22">
          <mxGeometry x="89" width="88" height="30" as="geometry">
            <mxRectangle width="88" height="30" as="alternateBounds" />
          </mxGeometry>
        </mxCell>
        <mxCell id="ly5D5InqMBe2bX2_tgMY-25" value="Edit, Remove" style="shape=partialRectangle;html=1;whiteSpace=wrap;connectable=0;fillColor=none;top=0;left=0;bottom=0;right=0;overflow=hidden;fontSize=12;strokeColor=inherit;" vertex="1" parent="ly5D5InqMBe2bX2_tgMY-22">
          <mxGeometry x="177" width="89" height="30" as="geometry">
            <mxRectangle width="89" height="30" as="alternateBounds" />
          </mxGeometry>
        </mxCell>
        <mxCell id="ly5D5InqMBe2bX2_tgMY-26" value="" style="shape=tableRow;horizontal=0;startSize=0;swimlaneHead=0;swimlaneBody=0;top=0;left=0;bottom=0;right=0;collapsible=0;dropTarget=0;fillColor=none;points=[[0,0.5],[1,0.5]];portConstraint=eastwest;fontSize=16;strokeColor=inherit;" vertex="1" parent="ly5D5InqMBe2bX2_tgMY-21">
          <mxGeometry y="30" width="266" height="30" as="geometry" />
        </mxCell>
        <mxCell id="ly5D5InqMBe2bX2_tgMY-27" value="Record 1" style="shape=partialRectangle;html=1;whiteSpace=wrap;connectable=0;fillColor=none;top=0;left=0;bottom=0;right=0;overflow=hidden;fontSize=12;strokeColor=inherit;" vertex="1" parent="ly5D5InqMBe2bX2_tgMY-26">
          <mxGeometry width="89" height="30" as="geometry">
            <mxRectangle width="89" height="30" as="alternateBounds" />
          </mxGeometry>
        </mxCell>
        <mxCell id="ly5D5InqMBe2bX2_tgMY-28" value="Value 5" style="shape=partialRectangle;html=1;whiteSpace=wrap;connectable=0;fillColor=none;top=0;left=0;bottom=0;right=0;overflow=hidden;fontSize=12;strokeColor=inherit;" vertex="1" parent="ly5D5InqMBe2bX2_tgMY-26">
          <mxGeometry x="89" width="88" height="30" as="geometry">
            <mxRectangle width="88" height="30" as="alternateBounds" />
          </mxGeometry>
        </mxCell>
        <mxCell id="ly5D5InqMBe2bX2_tgMY-29" value="E1, R1" style="shape=partialRectangle;html=1;whiteSpace=wrap;connectable=0;fillColor=none;top=0;left=0;bottom=0;right=0;overflow=hidden;fontSize=12;strokeColor=inherit;" vertex="1" parent="ly5D5InqMBe2bX2_tgMY-26">
          <mxGeometry x="177" width="89" height="30" as="geometry">
            <mxRectangle width="89" height="30" as="alternateBounds" />
          </mxGeometry>
        </mxCell>
        <mxCell id="ly5D5InqMBe2bX2_tgMY-30" value="" style="shape=tableRow;horizontal=0;startSize=0;swimlaneHead=0;swimlaneBody=0;top=0;left=0;bottom=0;right=0;collapsible=0;dropTarget=0;fillColor=none;points=[[0,0.5],[1,0.5]];portConstraint=eastwest;fontSize=16;strokeColor=inherit;" vertex="1" parent="ly5D5InqMBe2bX2_tgMY-21">
          <mxGeometry y="60" width="266" height="30" as="geometry" />
        </mxCell>
        <mxCell id="ly5D5InqMBe2bX2_tgMY-31" value="Record2" style="shape=partialRectangle;html=1;whiteSpace=wrap;connectable=0;fillColor=none;top=0;left=0;bottom=0;right=0;overflow=hidden;fontSize=12;strokeColor=inherit;" vertex="1" parent="ly5D5InqMBe2bX2_tgMY-30">
          <mxGeometry width="89" height="30" as="geometry">
            <mxRectangle width="89" height="30" as="alternateBounds" />
          </mxGeometry>
        </mxCell>
        <mxCell id="ly5D5InqMBe2bX2_tgMY-32" value="Value 8" style="shape=partialRectangle;html=1;whiteSpace=wrap;connectable=0;fillColor=none;top=0;left=0;bottom=0;right=0;overflow=hidden;fontSize=12;strokeColor=inherit;" vertex="1" parent="ly5D5InqMBe2bX2_tgMY-30">
          <mxGeometry x="89" width="88" height="30" as="geometry">
            <mxRectangle width="88" height="30" as="alternateBounds" />
          </mxGeometry>
        </mxCell>
        <mxCell id="ly5D5InqMBe2bX2_tgMY-33" value="Value 9" style="shape=partialRectangle;html=1;whiteSpace=wrap;connectable=0;fillColor=none;top=0;left=0;bottom=0;right=0;overflow=hidden;fontSize=12;strokeColor=inherit;" vertex="1" parent="ly5D5InqMBe2bX2_tgMY-30">
          <mxGeometry x="177" width="89" height="30" as="geometry">
            <mxRectangle width="89" height="30" as="alternateBounds" />
          </mxGeometry>
        </mxCell>
        <mxCell id="ly5D5InqMBe2bX2_tgMY-34" value="Add/Update" style="rounded=1;whiteSpace=wrap;html=1;" vertex="1" parent="1">
          <mxGeometry x="600" y="300" width="50" height="20" as="geometry" />
        </mxCell>
        <mxCell id="ly5D5InqMBe2bX2_tgMY-36" value="Reset" style="rounded=1;whiteSpace=wrap;html=1;" vertex="1" parent="1">
          <mxGeometry x="600" y="330" width="50" height="20" as="geometry" />
        </mxCell>
        <mxCell id="ly5D5InqMBe2bX2_tgMY-37" value="" style="rounded=1;whiteSpace=wrap;html=1;" vertex="1" parent="1">
          <mxGeometry x="160" y="720" width="240" height="90" as="geometry" />
        </mxCell>
        <mxCell id="ly5D5InqMBe2bX2_tgMY-38" value="spring boot" style="text;html=1;strokeColor=none;fillColor=none;align=center;verticalAlign=middle;whiteSpace=wrap;rounded=0;" vertex="1" parent="1">
          <mxGeometry x="330" y="690" width="90" height="30" as="geometry" />
        </mxCell>
        <mxCell id="ly5D5InqMBe2bX2_tgMY-39" value="Add/update" style="rounded=1;whiteSpace=wrap;html=1;" vertex="1" parent="1">
          <mxGeometry x="170" y="730" width="120" height="20" as="geometry" />
        </mxCell>
        <mxCell id="ly5D5InqMBe2bX2_tgMY-40" value="Get (1 or more records)" style="rounded=1;whiteSpace=wrap;html=1;" vertex="1" parent="1">
          <mxGeometry x="170" y="760" width="120" height="30" as="geometry" />
        </mxCell>
        <mxCell id="ly5D5InqMBe2bX2_tgMY-42" value="" style="shape=cylinder3;whiteSpace=wrap;html=1;boundedLbl=1;backgroundOutline=1;size=15;" vertex="1" parent="1">
          <mxGeometry x="530" y="720" width="60" height="80" as="geometry" />
        </mxCell>
        <mxCell id="ly5D5InqMBe2bX2_tgMY-43" style="edgeStyle=orthogonalEdgeStyle;rounded=0;orthogonalLoop=1;jettySize=auto;html=1;entryX=0;entryY=0.5;entryDx=0;entryDy=0;entryPerimeter=0;" edge="1" parent="1" source="ly5D5InqMBe2bX2_tgMY-37" target="ly5D5InqMBe2bX2_tgMY-42">
          <mxGeometry relative="1" as="geometry" />
        </mxCell>
        <mxCell id="ly5D5InqMBe2bX2_tgMY-44" value="DAO" style="rounded=1;whiteSpace=wrap;html=1;" vertex="1" parent="1">
          <mxGeometry x="300" y="735" width="70" height="60" as="geometry" />
        </mxCell>
        <mxCell id="ly5D5InqMBe2bX2_tgMY-46" value="Angular" style="text;html=1;align=center;verticalAlign=middle;resizable=0;points=[];autosize=1;strokeColor=none;fillColor=none;" vertex="1" parent="1">
          <mxGeometry x="710" y="310" width="60" height="30" as="geometry" />
        </mxCell>
        <mxCell id="ly5D5InqMBe2bX2_tgMY-47" value="Add/Update" style="rounded=1;whiteSpace=wrap;html=1;fillColor=#d5e8d4;strokeColor=#82b366;" vertex="1" parent="1">
          <mxGeometry x="155" y="230" width="120" height="20" as="geometry" />
        </mxCell>
        <mxCell id="ly5D5InqMBe2bX2_tgMY-48" value="Generate UI" style="rounded=1;whiteSpace=wrap;html=1;fillColor=#ffe6cc;strokeColor=#d79b00;" vertex="1" parent="1">
          <mxGeometry x="155" y="260" width="120" height="20" as="geometry" />
        </mxCell>
        <mxCell id="ly5D5InqMBe2bX2_tgMY-49" value="Profile Name" style="rounded=1;whiteSpace=wrap;html=1;" vertex="1" parent="1">
          <mxGeometry x="550" y="140" width="120" height="20" as="geometry" />
        </mxCell>
        <mxCell id="ly5D5InqMBe2bX2_tgMY-50" value="Logout" style="rounded=1;whiteSpace=wrap;html=1;" vertex="1" parent="1">
          <mxGeometry x="550" y="170" width="120" height="20" as="geometry" />
        </mxCell>
      </root>
    </mxGraphModel>
  </diagram>
</mxfile>
